<svg xmlns="http://www.w3.org/2000/svg" version="1.1" xmlns:xlink="http://www.w3.org/1999/xlink" xmlns:svgjs="http://svgjs.dev/svgjs" width="2000" height="479" viewBox="0 0 2000 479"><g transform="matrix(1,0,0,1,-1.2121191677266552,0.1954445534270235)"><svg viewBox="0 0 396 95" data-background-color="#fffffe" preserveAspectRatio="xMidYMid meet" height="479" width="2000" xmlns="http://www.w3.org/2000/svg" xmlns:xlink="http://www.w3.org/1999/xlink"><g id="tight-bounds" transform="matrix(1,0,0,1,0.2400004047901234,-0.03876248971934615)"><svg viewBox="0 0 395.52 95.07752497943868" height="95.07752497943868" width="395.52"><g><svg viewBox="0 0 516.2157428956858 124.09110838881489" height="95.07752497943868" width="395.52"><g transform="matrix(1,0,0,1,120.69574289568584,30.446086817576557)"><svg viewBox="0 0 395.52 63.198934753661774" height="63.198934753661774" width="395.52"><g id="textblocktransform"><svg viewBox="0 0 395.52 63.198934753661774" height="63.198934753661774" width="395.52" id="textblock"><g><svg viewBox="0 0 395.52 63.198934753661774" height="63.198934753661774" width="395.52"><g transform="matrix(1,0,0,1,0,0)"><svg width="395.52" viewBox="0.3500000238418579 -37 301.3699951171875 49" height="63.198934753661774" data-palette-color="#6c63ff"><path d="M17.95 0L11.55 0 11.55-29.85 1.35-29.85 1.35-35 28.2-35 28.2-29.85 17.95-29.85 17.95 0ZM36.75 0L30.35 0 30.35-24.8 36.05-24.8 36.65-20.15Q38-22.55 40.32-23.98 42.65-25.4 45.8-25.4L45.8-25.4 45.8-18.65 44-18.65Q41.9-18.65 40.25-18 38.6-17.35 37.67-15.75 36.75-14.15 36.75-11.3L36.75-11.3 36.75 0ZM58.7 0.6L58.7 0.6Q55.5 0.6 53.45-0.43 51.4-1.45 50.4-3.15 49.4-4.85 49.4-6.9L49.4-6.9Q49.4-10.35 52.1-12.5 54.8-14.65 60.2-14.65L60.2-14.65 66.5-14.65 66.5-15.25Q66.5-17.8 65.05-19 63.59-20.2 61.45-20.2L61.45-20.2Q59.5-20.2 58.05-19.28 56.6-18.35 56.25-16.55L56.25-16.55 50-16.55Q50.25-19.25 51.82-21.25 53.4-23.25 55.9-24.33 58.4-25.4 61.5-25.4L61.5-25.4Q66.8-25.4 69.84-22.75 72.9-20.1 72.9-15.25L72.9-15.25 72.9 0 67.45 0 66.84-4Q65.75-2 63.77-0.7 61.8 0.6 58.7 0.6ZM60.15-4.4L60.15-4.4Q62.9-4.4 64.42-6.2 65.95-8 66.34-10.65L66.34-10.65 60.9-10.65Q58.35-10.65 57.25-9.73 56.15-8.8 56.15-7.45L56.15-7.45Q56.15-6 57.25-5.2 58.35-4.4 60.15-4.4ZM82.44-28.65L82.44-28.65Q80.69-28.65 79.57-29.7 78.44-30.75 78.44-32.35L78.44-32.35Q78.44-33.95 79.57-34.98 80.69-36 82.44-36L82.44-36Q84.19-36 85.32-34.98 86.44-33.95 86.44-32.35L86.44-32.35Q86.44-30.75 85.32-29.7 84.19-28.65 82.44-28.65ZM85.64 0L79.24 0 79.24-24.8 85.64-24.8 85.64 0ZM98.74 0L92.34 0 92.34-36 98.74-36 98.74 0ZM123.74 0L117.34 0 117.34-35 124.94-35 136.09-12.8 147.09-35 154.69-35 154.69 0 148.29 0 148.29-24.15 138.54-5 133.49-5 123.74-24.15 123.74 0ZM169.88 0.6L169.88 0.6Q166.68 0.6 164.63-0.43 162.58-1.45 161.58-3.15 160.58-4.85 160.58-6.9L160.58-6.9Q160.58-10.35 163.28-12.5 165.98-14.65 171.38-14.65L171.38-14.65 177.68-14.65 177.68-15.25Q177.68-17.8 176.23-19 174.78-20.2 172.63-20.2L172.63-20.2Q170.68-20.2 169.23-19.28 167.78-18.35 167.43-16.55L167.43-16.55 161.18-16.55Q161.43-19.25 163.01-21.25 164.58-23.25 167.08-24.33 169.58-25.4 172.68-25.4L172.68-25.4Q177.98-25.4 181.03-22.75 184.08-20.1 184.08-15.25L184.08-15.25 184.08 0 178.63 0 178.03-4Q176.93-2 174.96-0.7 172.98 0.6 169.88 0.6ZM171.33-4.4L171.33-4.4Q174.08-4.4 175.61-6.2 177.13-8 177.53-10.65L177.53-10.65 172.08-10.65Q169.53-10.65 168.43-9.73 167.33-8.8 167.33-7.45L167.33-7.45Q167.33-6 168.43-5.2 169.53-4.4 171.33-4.4ZM196.58 11L190.18 11 190.18-24.8 195.88-24.8 196.58-21.25Q197.78-22.9 199.76-24.15 201.73-25.4 204.88-25.4L204.88-25.4Q208.38-25.4 211.13-23.7 213.88-22 215.48-19.05 217.08-16.1 217.08-12.35L217.08-12.35Q217.08-8.6 215.48-5.68 213.88-2.75 211.13-1.07 208.38 0.6 204.88 0.6L204.88 0.6Q202.08 0.6 199.98-0.45 197.88-1.5 196.58-3.4L196.58-3.4 196.58 11ZM203.53-5L203.53-5Q206.58-5 208.58-7.05 210.58-9.1 210.58-12.35L210.58-12.35Q210.58-15.6 208.58-17.7 206.58-19.8 203.53-19.8L203.53-19.8Q200.43-19.8 198.46-17.73 196.48-15.65 196.48-12.4L196.48-12.4Q196.48-9.15 198.46-7.08 200.43-5 203.53-5ZM229.18 11L222.78 11 222.78-24.8 228.48-24.8 229.18-21.25Q230.38-22.9 232.35-24.15 234.33-25.4 237.48-25.4L237.48-25.4Q240.98-25.4 243.73-23.7 246.48-22 248.08-19.05 249.68-16.1 249.68-12.35L249.68-12.35Q249.68-8.6 248.08-5.68 246.48-2.75 243.73-1.07 240.98 0.6 237.48 0.6L237.48 0.6Q234.68 0.6 232.58-0.45 230.48-1.5 229.18-3.4L229.18-3.4 229.18 11ZM236.13-5L236.13-5Q239.18-5 241.18-7.05 243.18-9.1 243.18-12.35L243.18-12.35Q243.18-15.6 241.18-17.7 239.18-19.8 236.13-19.8L236.13-19.8Q233.03-19.8 231.05-17.73 229.08-15.65 229.08-12.4L229.08-12.4Q229.08-9.15 231.05-7.08 233.03-5 236.13-5ZM267.43 0.6L267.43 0.6Q263.68 0.6 260.78-1 257.88-2.6 256.23-5.5 254.58-8.4 254.58-12.2L254.58-12.2Q254.58-16.05 256.2-19.05 257.83-22.05 260.7-23.73 263.58-25.4 267.48-25.4L267.48-25.4Q271.13-25.4 273.93-23.8 276.73-22.2 278.3-19.43 279.88-16.65 279.88-13.25L279.88-13.25Q279.88-12.7 279.85-12.1 279.83-11.5 279.78-10.85L279.78-10.85 260.93-10.85Q261.13-7.95 262.95-6.3 264.78-4.65 267.38-4.65L267.38-4.65Q269.33-4.65 270.65-5.53 271.98-6.4 272.63-7.8L272.63-7.8 279.13-7.8Q278.43-5.45 276.8-3.53 275.18-1.6 272.8-0.5 270.43 0.6 267.43 0.6ZM267.48-20.2L267.48-20.2Q265.13-20.2 263.33-18.88 261.53-17.55 261.03-14.85L261.03-14.85 273.38-14.85Q273.23-17.3 271.58-18.75 269.93-20.2 267.48-20.2ZM291.67 0L285.27 0 285.27-24.8 290.97-24.8 291.57-20.15Q292.92-22.55 295.25-23.98 297.57-25.4 300.72-25.4L300.72-25.4 300.72-18.65 298.92-18.65Q296.82-18.65 295.17-18 293.52-17.35 292.6-15.75 291.67-14.15 291.67-11.3L291.67-11.3 291.67 0Z" opacity="1" transform="matrix(1,0,0,1,0,0)" fill="#6c63ff" class="undefined-text-0" data-fill-palette-color="primary" id="text-0"></path></svg></g></svg></g></svg></g></svg></g><g><svg viewBox="0 0 106.08681933563258 124.09110838881489" height="124.09110838881489" width="106.08681933563258"><g><svg xmlns="http://www.w3.org/2000/svg" xmlns:xlink="http://www.w3.org/1999/xlink" version="1.1" x="0" y="0" viewBox="11.700000762939453 5.199999809265137 76.60000610351562 89.60000610351562" style="enable-background:new 0 0 100 100;" xml:space="preserve" height="124.09110838881489" width="106.08681933563258" class="icon-icon-0" data-fill-palette-color="accent" id="icon-0"><path d="M50 5.2c-21.2 0-38.3 17.2-38.3 38.3 0 16.9 10.9 31.2 26.1 36.3l12.2 15 12.2-14.9c15.2-5.1 26.1-19.4 26.1-36.3C88.3 22.4 71.2 5.2 50 5.2zM66.4 33.8l-6.6 6.6c-0.3 0.3-0.6 0.4-1 0.4s-0.7-0.1-1-0.4c-0.5-0.5-0.5-1.4 0-1.9l4.3-4.3H51.3v10.4h3.8c0.8 0 1.4 0.6 1.4 1.4s-0.6 1.4-1.4 1.4h-3.8v18c0 0.8-0.6 1.4-1.4 1.4s-1.4-0.6-1.4-1.4v-18H37.8l4.3 4.3c0.5 0.5 0.5 1.4 0 1.9-0.3 0.3-0.6 0.4-1 0.4s-0.7-0.1-1-0.4l-6.6-6.6c-0.3-0.3-0.4-0.6-0.4-1s0.1-0.7 0.4-1l6.6-6.6c0.5-0.5 1.4-0.5 1.9 0 0.5 0.5 0.5 1.4 0 1.9l-4.3 4.3h10.8V34.2h-3.7c-0.8 0-1.4-0.6-1.4-1.4s0.6-1.4 1.4-1.4h3.7v-8.5c0-0.8 0.6-1.4 1.4-1.4s1.4 0.6 1.4 1.4v8.5h10.9l-4.3-4.3c-0.5-0.5-0.5-1.4 0-1.9 0.5-0.5 1.4-0.5 1.9 0l6.6 6.6C67 32.4 67 33.3 66.4 33.8z" fill="#6c63ff" data-fill-palette-color="accent"></path></svg></g></svg></g></svg></g><defs></defs></svg><rect width="395.52" height="95.07752497943868" fill="none" stroke="none" visibility="hidden"></rect></g></svg></g></svg>