<svg xmlns="http://www.w3.org/2000/svg" version="1.1" xmlns:xlink="http://www.w3.org/1999/xlink" xmlns:svgjs="http://svgjs.dev/svgjs" width="128" height="128" viewBox="0 0 128 128"><g transform="matrix(0.8046875,0,0,0.8046875,12.266196224412028,4.754620230263157)"><svg viewBox="0 0 82 95" data-background-color="#fffffe" preserveAspectRatio="xMidYMid meet" height="148" width="128" xmlns="http://www.w3.org/2000/svg" xmlns:xlink="http://www.w3.org/1999/xlink"><g id="tight-bounds" transform="matrix(1,0,0,1,0.18613504464285313,-0.24049999999999727)"><svg viewBox="0 0 81.6277299107143 95.481" height="95.481" width="81.6277299107143"><g><svg viewBox="0 0 81.6277299107143 95.481" height="95.481" width="81.6277299107143"><g><svg viewBox="0 0 81.6277299107143 95.481" height="95.481" width="81.6277299107143"><g id="textblocktransform"><svg viewBox="0 0 81.6277299107143 95.481" height="95.481" width="81.6277299107143" id="textblock"><g><svg viewBox="0 0 81.6277299107143 95.481" height="95.481" width="81.6277299107143"><g><svg viewBox="0 0 81.6277299107143 95.481" height="95.481" width="81.6277299107143"><g><svg xmlns="http://www.w3.org/2000/svg" xmlns:xlink="http://www.w3.org/1999/xlink" version="1.1" x="0" y="0" viewBox="11.700000000000003 5.2 76.60000000000001 89.6" style="enable-background:new 0 0 100 100;" xml:space="preserve" height="95.481" width="81.6277299107143" class="icon-icon-0" data-fill-palette-color="accent" id="icon-0"><path d="M50 5.2c-21.2 0-38.3 17.2-38.3 38.3 0 16.9 10.9 31.2 26.1 36.3l12.2 15 12.2-14.9c15.2-5.1 26.1-19.4 26.1-36.3C88.3 22.4 71.2 5.2 50 5.2zM66.4 33.8l-6.6 6.6c-0.3 0.3-0.6 0.4-1 0.4s-0.7-0.1-1-0.4c-0.5-0.5-0.5-1.4 0-1.9l4.3-4.3H51.3v10.4h3.8c0.8 0 1.4 0.6 1.4 1.4s-0.6 1.4-1.4 1.4h-3.8v18c0 0.8-0.6 1.4-1.4 1.4s-1.4-0.6-1.4-1.4v-18H37.8l4.3 4.3c0.5 0.5 0.5 1.4 0 1.9-0.3 0.3-0.6 0.4-1 0.4s-0.7-0.1-1-0.4l-6.6-6.6c-0.3-0.3-0.4-0.6-0.4-1s0.1-0.7 0.4-1l6.6-6.6c0.5-0.5 1.4-0.5 1.9 0 0.5 0.5 0.5 1.4 0 1.9l-4.3 4.3h10.8V34.2h-3.7c-0.8 0-1.4-0.6-1.4-1.4s0.6-1.4 1.4-1.4h3.7v-8.5c0-0.8 0.6-1.4 1.4-1.4s1.4 0.6 1.4 1.4v8.5h10.9l-4.3-4.3c-0.5-0.5-0.5-1.4 0-1.9 0.5-0.5 1.4-0.5 1.9 0l6.6 6.6C67 32.4 67 33.3 66.4 33.8z" fill="#6c63ff" data-fill-palette-color="accent"></path></svg></g></svg></g></svg></g></svg></g></svg></g></svg></g><defs></defs></svg><rect width="81.6277299107143" height="95.481" fill="none" stroke="none" visibility="hidden"></rect></g></svg></g></svg>